# xmcd
#
# Track frame offsets: 
#        150
#        17777
#        36260
#        60380
#        81992
#        100510
#        121702
#        146972
#        166475
#        188310
#        210787
#        227862
#        247530
#        263827
#
# Disc length: 3753 seconds
#
# Revision: 1
# Processed by: cddbd v1.5.2PL0 Copyright (c) Steve Scherf et al.
# Submitted via: ExactAudioCopy v0.99pb5
#
DISCID=a70ea70e
DTITLE=Europe - Prisoners In Paradise
DYEAR=1991
DGENRE=Hard Rock
TTITLE0=All Or Nothing
TTITLE1=Halfway To Heaven
TTITLE2=I'll Cry For You
TTITLE3=Little Bit Of Lovin'
TTITLE4=Talk To Me
TTITLE5=Saventh Sign
TTITLE6=Prisoners In Paradise
TTITLE7=Bad Blood
TTITLE8=Homeland
TTITLE9=Got Your Mind In The Gutter
TTITLE10='til My Heart Beats Down Your Door
TTITLE11=Girl From Lebanon
TTITLE12=Government Man
TTITLE13=A Long Time Comin'
EXTD=
EXTT0=
EXTT1=
EXTT2=
EXTT3=
EXTT4=
EXTT5=
EXTT6=
EXTT7=
EXTT8=
EXTT9=
EXTT10=
EXTT11=
EXTT12=
EXTT13=
PLAYORDER=
